<svg width="90" height="90" viewBox="0 0 90 90" fill="none" xmlns="http://www.w3.org/2000/svg">
<path d="M45 89.9927C69.8528 89.9927 90 69.8471 90 44.9963C90 20.1456 69.8528 0 45 0C20.1472 0 0 20.1456 0 44.9963C0 69.8471 20.1472 89.9927 45 89.9927Z" fill="url(#paint0_linear_6_252)"/>
<path fill-rule="evenodd" clip-rule="evenodd" d="M44.7442 46.4504L44.6785 46.4358L44.7369 46.3774L44.6638 46.3993L44.6785 46.3408L44.6273 46.3847L44.6127 46.3116L44.5981 46.3847L44.5469 46.3408L44.5615 46.3993L44.4885 46.3774L44.5469 46.4358L44.4885 46.4504L44.5469 46.465L44.4958 46.5235L44.5615 46.5089H44.5835L44.5981 46.4943H44.6565L44.7296 46.5308L44.6712 46.4724L44.7369 46.4577L44.7442 46.4504ZM44.7442 46.4504L44.6785 46.4358L44.7369 46.3774L44.6638 46.3993L44.6785 46.3408L44.6273 46.3847L44.6127 46.3116L44.5981 46.3847L44.5469 46.3408L44.5615 46.3993L44.4885 46.3774L44.5469 46.4358L44.4885 46.4504L44.5469 46.465L44.4958 46.5235L44.5615 46.5089H44.5835L44.5981 46.4943H44.6565L44.7296 46.5308L44.6712 46.4724L44.7369 46.4577L44.7442 46.4504ZM44.7442 46.4504L44.6785 46.4358L44.7369 46.3774L44.6638 46.3993L44.6785 46.3408L44.6273 46.3847L44.6127 46.3116L44.5981 46.3847L44.5469 46.3408L44.5615 46.3993L44.4885 46.3774L44.5469 46.4358L44.4885 46.4504L44.5469 46.465L44.4958 46.5235L44.5615 46.5089H44.5835L44.5981 46.4943H44.6565L44.7296 46.5308L44.6712 46.4724L44.7369 46.4577L44.7442 46.4504ZM44.7442 46.4504L44.6785 46.4358L44.7369 46.3774L44.6638 46.3993L44.6785 46.3408L44.6273 46.3847L44.6127 46.3116L44.5981 46.3847L44.5469 46.3408L44.5615 46.3993L44.4885 46.3774L44.5469 46.4358L44.4885 46.4504L44.5469 46.465L44.4958 46.5235L44.5615 46.5089H44.5835L44.5981 46.4943H44.6565L44.7296 46.5308L44.6712 46.4724L44.7369 46.4577L44.7442 46.4504ZM44.7442 46.4504L44.6785 46.4358L44.7369 46.3774L44.6638 46.3993L44.6785 46.3408L44.6273 46.3847L44.6127 46.3116L44.5981 46.3847L44.5469 46.3408L44.5615 46.3993L44.4885 46.3774L44.5469 46.4358L44.4885 46.4504L44.5469 46.465L44.4958 46.5235L44.5615 46.5089H44.5835L44.5981 46.4943H44.6565L44.7296 46.5308L44.6712 46.4724L44.7369 46.4577L44.7442 46.4504ZM44.7442 46.4504L44.6785 46.4358L44.7369 46.3774L44.6638 46.3993L44.6785 46.3408L44.6273 46.3847L44.6127 46.3116L44.5981 46.3847L44.5469 46.3408L44.5615 46.3993L44.4885 46.3774L44.5469 46.4358L44.4885 46.4504L44.5469 46.465L44.4958 46.5235L44.5615 46.5089H44.5835L44.5981 46.4943H44.6565L44.7296 46.5308L44.6712 46.4724L44.7369 46.4577L44.7442 46.4504ZM88.3631 32.9691C86.2877 25.4502 82.3051 18.7205 76.9633 13.3352C71.3072 7.62117 64.1239 3.41236 56.0783 1.38102C52.5341 0.48226 48.8219 0 44.9927 0C40.9151 0 36.9617 0.548023 33.1983 1.571C24.9553 3.79963 17.6478 8.31534 12.0136 14.402C6.93488 19.8677 3.20071 26.5974 1.34459 34.0651C0.460377 37.5652 0 41.2259 0 44.9963C0 50.0528 0.84037 54.9265 2.38227 59.4715C4.75723 66.4862 8.82023 72.719 14.089 77.6951C19.5624 82.883 26.3438 86.6972 33.8925 88.6044C37.444 89.5104 41.1562 89.9927 44.9927 89.9927C48.5734 89.9927 52.0518 89.5689 55.3841 88.7797C63.3274 86.9091 70.4596 82.9268 76.1522 77.4612C81.4648 72.3756 85.5205 65.9893 87.8296 58.8284C89.24 54.4735 90 49.8263 90 45.0037C90 40.8387 89.43 36.8052 88.3704 32.9837L88.3631 32.9691ZM67.9385 69.3943C63.7001 73.3766 58.424 76.2702 52.556 77.622C50.1226 78.1846 47.5942 78.4769 44.9927 78.4769C42.1427 78.4769 39.3659 78.1189 36.7205 77.4466C31.1814 76.0364 26.1903 73.2524 22.1419 69.4747C18.2251 65.8212 15.1924 61.2397 13.3728 56.0737C12.1598 52.6029 11.5021 48.8763 11.5021 44.989C11.5021 42.3147 11.8163 39.7207 12.4082 37.2363C13.7309 31.6319 16.4639 26.5755 20.22 22.4543C24.4073 17.8509 29.8587 14.424 36.0263 12.7141C38.8763 11.925 41.887 11.5012 44.9927 11.5012C47.8353 11.5012 50.6049 11.8592 53.2502 12.5315C59.2936 14.0586 64.6866 17.2298 68.9177 21.5556C72.9003 25.6183 75.8599 30.6893 77.3652 36.3668C78.096 39.1142 78.4833 42.0078 78.4833 44.989C78.4833 48.7156 77.8694 52.296 76.7587 55.6426C74.9756 60.9402 71.9211 65.6459 67.9385 69.387V69.3943ZM44.6858 46.4358L44.7442 46.3774L44.6712 46.3993L44.6858 46.3408L44.6346 46.3847L44.62 46.3116L44.6054 46.3847L44.5542 46.3408L44.5689 46.3993L44.4958 46.3774L44.5542 46.4358L44.4958 46.4504L44.5542 46.465L44.5031 46.5235L44.5689 46.5089H44.5908L44.6054 46.4943H44.6638L44.7369 46.5308L44.6785 46.4724L44.7442 46.4577L44.6785 46.4431L44.6858 46.4358ZM44.7515 46.4504L44.6858 46.4358L44.7442 46.3774L44.6712 46.3993L44.6858 46.3408L44.6346 46.3847L44.62 46.3116L44.6054 46.3847L44.5542 46.3408L44.5689 46.3993L44.4958 46.3774L44.5542 46.4358L44.4958 46.4504L44.5542 46.465L44.5031 46.5235L44.5689 46.5089H44.5908L44.6054 46.4943H44.6638L44.7369 46.5308L44.6785 46.4724L44.7442 46.4577L44.7515 46.4504ZM44.7515 46.4504L44.6858 46.4358L44.7442 46.3774L44.6712 46.3993L44.6858 46.3408L44.6346 46.3847L44.62 46.3116L44.6054 46.3847L44.5542 46.3408L44.5689 46.3993L44.4958 46.3774L44.5542 46.4358L44.4958 46.4504L44.5542 46.465L44.5031 46.5235L44.5689 46.5089H44.5908L44.6054 46.4943H44.6638L44.7369 46.5308L44.6785 46.4724L44.7442 46.4577L44.7515 46.4504ZM44.7515 46.4504L44.6858 46.4358L44.7442 46.3774L44.6712 46.3993L44.6858 46.3408L44.6346 46.3847L44.62 46.3116L44.6054 46.3847L44.5542 46.3408L44.5689 46.3993L44.4958 46.3774L44.5542 46.4358L44.4958 46.4504L44.5542 46.465L44.5031 46.5235L44.5689 46.5089H44.5908L44.6054 46.4943H44.6638L44.7369 46.5308L44.6785 46.4724L44.7442 46.4577L44.7515 46.4504ZM44.7515 46.4504L44.6858 46.4358L44.7442 46.3774L44.6712 46.3993L44.6858 46.3408L44.6346 46.3847L44.62 46.3116L44.6054 46.3847L44.5542 46.3408L44.5689 46.3993L44.4958 46.3774L44.5542 46.4358L44.4958 46.4504L44.5542 46.465L44.5031 46.5235L44.5689 46.5089H44.5908L44.6054 46.4943H44.6638L44.7369 46.5308L44.6785 46.4724L44.7442 46.4577L44.7515 46.4504Z" fill="url(#paint1_linear_6_252)"/>
<path fill-rule="evenodd" clip-rule="evenodd" d="M45.1169 46.5235L45.0438 46.5016L45.0585 46.5601L45.0073 46.5162L44.9927 46.5966L44.9781 46.5235L44.9269 46.5674L44.9415 46.5089L44.8758 46.5235L44.9269 46.4724L44.8685 46.4504L44.9269 46.4358L44.8685 46.3774L44.9415 46.4066L44.9269 46.3481L44.9781 46.3847L44.9927 46.3116L45.0073 46.3847L45.0585 46.3481L45.0438 46.4066L45.1169 46.3774L45.0585 46.4358L45.1242 46.4504L45.0585 46.4724L45.1169 46.5235Z" fill="url(#paint2_linear_6_252)"/>
<path style="mix-blend-mode:multiply" opacity="0.88" fill-rule="evenodd" clip-rule="evenodd" d="M45 12.758C27.1915 12.758 12.759 27.1892 12.759 44.9963C12.759 62.8034 27.1915 77.2347 45 77.2347C62.8085 77.2347 77.241 62.8034 77.241 44.9963C77.241 27.1892 62.8012 12.758 45 12.758ZM45 74.3192C28.8064 74.3192 15.6747 61.1886 15.6747 44.9963C15.6747 28.8041 28.7991 15.6734 45 15.6734C61.2009 15.6734 74.3253 28.8041 74.3253 44.9963C74.3253 61.1886 61.1936 74.3192 45 74.3192V74.3192Z" fill="url(#paint3_linear_6_252)"/>
<path style="mix-blend-mode:screen" opacity="0.5" fill-rule="evenodd" clip-rule="evenodd" d="M45 14.1536C27.1915 14.1536 12.759 27.1892 12.759 44.9963C12.759 62.8034 27.1915 77.2347 45 77.2347C62.8085 77.2347 77.241 62.8034 77.241 44.9963C77.241 27.1892 62.8012 14.1536 45 14.1536ZM44.7442 75.0865C28.5507 75.0865 15.6747 61.1959 15.6747 44.9963C15.6747 28.7968 28.7991 15.6734 45 15.6734C61.2009 15.6734 74.3253 28.8041 74.3253 44.9963C74.3253 61.1886 60.9378 75.0865 44.7442 75.0865V75.0865Z" fill="url(#paint4_linear_6_252)"/>
<g style="mix-blend-mode:multiply" opacity="0.88">
<path fill-rule="evenodd" clip-rule="evenodd" d="M15.0755 31.5954C15.0755 31.5954 24.188 14.1463 44.4008 14.1463C64.6135 14.1463 74.9245 34.5766 74.9245 34.5766C74.9245 34.5766 67.9384 12.7507 44.4008 12.7507C20.8631 12.7507 15.0755 31.5954 15.0755 31.5954Z" fill="#CE838D"/>
</g>
<path fill-rule="evenodd" clip-rule="evenodd" d="M32.6064 1.73176V6.89048C32.6064 6.89048 37.0201 8.41033 45 8.41033C52.9799 8.41033 57.3936 6.89048 57.3936 6.89048V1.73176C49.2384 -0.56994 40.7689 -0.584553 32.6064 1.73176V1.73176Z" fill="url(#paint5_linear_6_252)"/>
<path fill-rule="evenodd" clip-rule="evenodd" d="M57.3863 88.2609V83.1022C57.3863 83.1022 52.9726 81.5824 44.9927 81.5824C37.0128 81.5824 32.5991 83.1022 32.5991 83.1022V88.2536C40.7543 90.5553 49.2238 90.5699 57.3863 88.2536V88.2609Z" fill="url(#paint6_linear_6_252)"/>
<path fill-rule="evenodd" clip-rule="evenodd" d="M75.5822 11.9761L71.1684 14.6505C71.1684 14.6505 72.1549 19.2173 76.291 26.0347C80.5732 33.1079 84.0151 35.8407 84.0151 35.8407L88.4216 33.1737C86.1635 25.0045 81.7863 17.7486 75.5822 11.9761V11.9761Z" fill="url(#paint7_linear_6_252)"/>
<path fill-rule="evenodd" clip-rule="evenodd" d="M14.4105 78.0165L18.8243 75.3422C18.8243 75.3422 17.8378 70.7753 13.7017 63.9579C9.41946 56.8848 5.9776 54.152 5.9776 54.152L1.57113 56.819C3.82917 64.9882 8.2064 72.244 14.4105 78.0165V78.0165Z" fill="url(#paint8_linear_6_252)"/>
<path fill-rule="evenodd" clip-rule="evenodd" d="M88.5969 56.1906L84.1466 53.582C84.1466 53.582 80.6025 56.6217 76.5687 63.5049C72.3888 70.6365 71.6142 74.9622 71.6142 74.9622L76.0572 77.5635C82.1736 71.696 86.4704 64.3964 88.5969 56.1906V56.1906Z" fill="url(#paint9_linear_6_252)"/>
<path fill-rule="evenodd" clip-rule="evenodd" d="M1.40305 33.8021L5.85336 36.4107C5.85336 36.4107 9.39753 33.371 13.4313 26.4951C17.6112 19.3635 18.3858 15.0378 18.3858 15.0378L13.9428 12.4365C7.8264 18.2967 3.52956 25.5963 1.40305 33.8021Z" fill="url(#paint10_linear_6_252)"/>
<g style="mix-blend-mode:multiply" opacity="0.5">
<path fill-rule="evenodd" clip-rule="evenodd" d="M1.43227 56.5048C1.43227 56.5048 10.4571 88.5751 44.9927 88.2609C81.3259 87.9321 88.5531 56.0737 88.5531 56.0737C88.5531 56.0737 80.9678 89.9927 44.9269 89.9927C8.88599 89.9927 1.43227 56.5048 1.43227 56.5048Z" fill="#22006B"/>
</g>
<path d="M64.8254 11.0408C65.4389 11.0408 65.9362 10.5436 65.9362 9.93018C65.9362 9.31678 65.4389 8.81952 64.8254 8.81952C64.212 8.81952 63.7147 9.31678 63.7147 9.93018C63.7147 10.5436 64.212 11.0408 64.8254 11.0408Z" fill="#FFA700"/>
<path d="M25.6715 11.0408C26.2849 11.0408 26.7822 10.5436 26.7822 9.93018C26.7822 9.31678 26.2849 8.81952 25.6715 8.81952C25.058 8.81952 24.5607 9.31678 24.5607 9.93018C24.5607 10.5436 25.058 11.0408 25.6715 11.0408Z" fill="#FFA700"/>
<path d="M64.8254 79.1272C65.4389 79.1272 65.9362 78.63 65.9362 78.0166C65.9362 77.4032 65.4389 76.9059 64.8254 76.9059C64.212 76.9059 63.7147 77.4032 63.7147 78.0166C63.7147 78.63 64.212 79.1272 64.8254 79.1272Z" fill="#FFA700"/>
<path fill-rule="evenodd" clip-rule="evenodd" d="M86.2512 44.7114C86.2512 45.3252 85.7543 45.822 85.1405 45.822C84.5266 45.822 84.0297 45.3252 84.0297 44.7114C84.0297 44.0976 84.5266 43.6007 85.1405 43.6007C85.7543 43.6007 86.2512 44.0976 86.2512 44.7114Z" fill="#FFA700"/>
<path fill-rule="evenodd" clip-rule="evenodd" d="M6.32834 44.7114C6.32834 45.3252 5.83143 45.822 5.21759 45.822C4.60376 45.822 4.10684 45.3252 4.10684 44.7114C4.10684 44.0976 4.60376 43.6007 5.21759 43.6007C5.83143 43.6007 6.32834 44.0976 6.32834 44.7114Z" fill="#FFA700"/>
<path d="M25.6715 79.1272C26.2849 79.1272 26.7822 78.63 26.7822 78.0166C26.7822 77.4032 26.2849 76.9059 25.6715 76.9059C25.058 76.9059 24.5607 77.4032 24.5607 78.0166C24.5607 78.63 25.058 79.1272 25.6715 79.1272Z" fill="#FFA700"/>
<defs>
<linearGradient id="paint0_linear_6_252" x1="0" y1="44.9963" x2="89.9927" y2="44.9963" gradientUnits="userSpaceOnUse">
<stop stop-color="#D9023D"/>
<stop offset="1" stop-color="#FF131D"/>
</linearGradient>
<linearGradient id="paint1_linear_6_252" x1="45" y1="89.9927" x2="45" y2="0" gradientUnits="userSpaceOnUse">
<stop stop-color="#D9023D"/>
<stop offset="1" stop-color="#FF131D"/>
</linearGradient>
<linearGradient id="paint2_linear_6_252" x1="44.9342" y1="46.5747" x2="45.0438" y2="46.3408" gradientUnits="userSpaceOnUse">
<stop stop-color="#13001D"/>
<stop offset="1" stop-color="#2F042F"/>
</linearGradient>
<linearGradient id="paint3_linear_6_252" x1="45" y1="77.2347" x2="45" y2="12.758" gradientUnits="userSpaceOnUse">
<stop offset="0.45" stop-color="white"/>
<stop offset="0.99" stop-color="#A21645"/>
</linearGradient>
<linearGradient id="paint4_linear_6_252" x1="45" y1="77.2347" x2="45" y2="14.1536" gradientUnits="userSpaceOnUse">
<stop stop-color="#FFB561"/>
<stop offset="0.04" stop-color="#D39650"/>
<stop offset="0.1" stop-color="#A7773F"/>
<stop offset="0.16" stop-color="#7F5A30"/>
<stop offset="0.22" stop-color="#5C4123"/>
<stop offset="0.29" stop-color="#3F2D18"/>
<stop offset="0.36" stop-color="#281C0F"/>
<stop offset="0.45" stop-color="#160F08"/>
<stop offset="0.55" stop-color="#090603"/>
<stop offset="0.69" stop-color="#020100"/>
<stop offset="0.99"/>
</linearGradient>
<linearGradient id="paint5_linear_6_252" x1="45" y1="8.41033" x2="45" y2="4.01036e-06" gradientUnits="userSpaceOnUse">
<stop stop-color="#F9D5D1"/>
<stop offset="0.06" stop-color="#F9D6D2"/>
<stop offset="0.53" stop-color="#FDE2DB"/>
<stop offset="1" stop-color="#FFE7DE"/>
</linearGradient>
<linearGradient id="paint6_linear_6_252" x1="45" y1="81.5824" x2="45" y2="89.9854" gradientUnits="userSpaceOnUse">
<stop stop-color="#F9D5D1"/>
<stop offset="0.06" stop-color="#F9D6D2"/>
<stop offset="0.53" stop-color="#FDE2DB"/>
<stop offset="1" stop-color="#FFE7DE"/>
</linearGradient>
<linearGradient id="paint7_linear_6_252" x1="76.3032" y1="26.0683" x2="83.4966" y2="21.7097" gradientUnits="userSpaceOnUse">
<stop stop-color="#F9D5D1"/>
<stop offset="0.06" stop-color="#F9D6D2"/>
<stop offset="0.53" stop-color="#FDE2DB"/>
<stop offset="1" stop-color="#FFE7DE"/>
</linearGradient>
<linearGradient id="paint8_linear_6_252" x1="13.6578" y1="63.9778" x2="6.4706" y2="68.3326" gradientUnits="userSpaceOnUse">
<stop stop-color="#F9D5D1"/>
<stop offset="0.06" stop-color="#F9D6D2"/>
<stop offset="0.53" stop-color="#FDE2DB"/>
<stop offset="1" stop-color="#FFE7DE"/>
</linearGradient>
<linearGradient id="paint9_linear_6_252" x1="76.5795" y1="63.4519" x2="83.829" y2="67.7021" gradientUnits="userSpaceOnUse">
<stop stop-color="#F9D5D1"/>
<stop offset="0.06" stop-color="#F9D6D2"/>
<stop offset="0.53" stop-color="#FDE2DB"/>
<stop offset="1" stop-color="#FFE7DE"/>
</linearGradient>
<linearGradient id="paint10_linear_6_252" x1="13.4539" y1="26.4948" x2="6.19811" y2="22.2409" gradientUnits="userSpaceOnUse">
<stop stop-color="#F9D5D1"/>
<stop offset="0.06" stop-color="#F9D6D2"/>
<stop offset="0.53" stop-color="#FDE2DB"/>
<stop offset="1" stop-color="#FFE7DE"/>
</linearGradient>
</defs>
</svg>
